<?xml version="1.0" encoding="UTF-8"?>
<svg width="36px" height="36px" viewBox="0 0 36 36" version="1.1" xmlns="http://www.w3.org/2000/svg" xmlns:xlink="http://www.w3.org/1999/xlink">
    <title>Icons/Tabbar/ic_gifttest</title>
    <g id="Icons/Tabbar/ic_gift" stroke="none" stroke-width="1" fill="none" fill-rule="evenodd" stroke-linecap="round" stroke-linejoin="round">
        <path d="M18.4999999,13.388889 L18.4999999,30 M18.4999999,13.388889 L18.4999999,10.8333335 C18.4999999,10.3278957 18.6498833,9.83380458 18.9307388,9.41354347 C19.2114666,8.99328237 19.6106444,8.66573681 20.0775444,8.47230681 C20.5445721,8.27888959 21.0583666,8.22827681 21.5541443,8.32688293 C22.0497943,8.42548904 22.5051943,8.66888015 22.8625888,9.02628737 C23.2199832,9.38368181 23.4633999,9.83904347 23.5620443,10.3347701 C23.660561,10.8304968 23.609961,11.3443423 23.4166332,11.8113062 C23.2231777,12.2782701 22.8955554,12.6773968 22.4752943,12.9582012 C22.0550332,13.2390057 21.5610443,13.388889 21.0555555,13.388889 L18.4999999,13.388889 Z M18.4999999,13.388889 L18.4999999,10.1944446 C18.4999999,9.56264736 18.3126521,8.94503348 17.9616338,8.41971348 C17.6106283,7.89438071 17.1117199,7.48494238 16.5280183,7.24316127 C15.9443038,7.00138016 15.3020161,6.93812377 14.6823449,7.0613846 C14.0626866,7.18463904 13.4934877,7.48887793 13.0467383,7.93562737 C12.5999889,8.38238959 12.29575,8.9515757 12.1724955,9.57124681 C12.0492283,10.1909051 12.1124911,10.8331929 12.3542722,11.4169073 C12.5960533,12.000609 13.0054916,12.4995173 13.5308116,12.8505229 C14.0561444,13.2015412 14.6737583,13.388889 15.3055555,13.388889 L18.4999999,13.388889 Z M9.55555554,18.5000001 L27.4444443,18.5000001 M9.55555554,18.5000001 C8.87778388,18.5000001 8.22776555,18.2307595 7.74850944,17.7514906 C7.26924055,17.2722345 7,16.6222162 7,15.9444445 C7,15.2666729 7.26924055,14.6166545 7.74850944,14.1373984 C8.22776555,13.6581423 8.87778388,13.388889 9.55555554,13.388889 L27.4444443,13.388889 C28.1221776,13.388889 28.7721832,13.6581423 29.2514776,14.1373984 C29.7307721,14.6166545 30,15.2666729 30,15.9444445 C30,16.6222162 29.7307721,17.2722345 29.2514776,17.7514906 C28.7721832,18.2307595 28.1221776,18.5000001 27.4444443,18.5000001 M9.55555554,18.5000001 L9.55555554,27.4444445 C9.55555554,28.1221778 9.82479609,28.7721833 10.304065,29.2514778 C10.7833211,29.7307722 11.4333394,30.0000001 12.1111111,30.0000001 L24.8888888,30.0000001 C25.5666221,30.0000001 26.2166276,29.7307722 26.6959221,29.2514778 C27.1752165,28.7721833 27.4444443,28.1221778 27.4444443,27.4444445 L27.4444443,18.5000001" id="Shape" stroke="#9B9B9B" stroke-width="2"></path>
    </g>
</svg>