<?xml version="1.0" encoding="UTF-8"?>
<svg width="36px" height="36px" viewBox="0 0 36 36" version="1.1" xmlns="http://www.w3.org/2000/svg" xmlns:xlink="http://www.w3.org/1999/xlink">
    <title>Icons/Tabbar/ic_faltest</title>
    <g id="Icons/Tabbar/ic_fal" stroke="none" stroke-width="1" fill="none" fill-rule="evenodd" stroke-linecap="round" stroke-linejoin="round">
        <path d="M11.1111111,13.1111111 L23.8888889,13.1111111 M11.1111111,18.2222222 L16.2222222,18.2222222 M17.5,28.4444444 L12.3888889,23.3333333 L8.55555556,23.3333333 C7.87778389,23.3333333 7.22776556,23.0641056 6.74850944,22.5848111 C6.26924056,22.1055167 6,21.4555111 6,20.7777778 L6,10.5555556 C6,9.87778389 6.26924056,9.22776556 6.74850944,8.74850944 C7.22776556,8.26924056 7.87778389,8 8.55555556,8 L26.4444444,8 C27.1221778,8 27.7721833,8.26924056 28.2514778,8.74850944 C28.7307722,9.22776556 29,9.87778389 29,10.5555556 L29,20.7777778 C29,21.4555111 28.7307722,22.1055167 28.2514778,22.5848111 C27.7721833,23.0641056 27.1221778,23.3333333 26.4444444,23.3333333 L22.6111111,23.3333333 L17.5,28.4444444 Z" id="Shape" stroke="#9B9B9B" stroke-width="2.1"></path>
    </g>
</svg>