<?xml version="1.0" encoding="UTF-8"?>
<svg width="36px" height="36px" viewBox="0 0 36 36" version="1.1" xmlns="http://www.w3.org/2000/svg" xmlns:xlink="http://www.w3.org/1999/xlink">
    <title>Icons/Tabbar/ic_hometest</title>
    <g id="Icons/Tabbar/ic_home" stroke="none" stroke-width="1" fill="none" fill-rule="evenodd" stroke-linecap="round" stroke-linejoin="round">
        <path d="M6,17.8702703 L8.59459459,15.2324324 M8.59459459,15.2324324 L17.6756757,6 L26.7567568,15.2324324 M8.59459459,15.2324324 L8.59459459,28.4216216 C8.59459459,28.7713989 8.73127784,29.1069319 8.97456,29.3542292 C9.21785514,29.6015265 9.5478227,29.7405405 9.89189189,29.7405405 L13.7837838,29.7405405 M26.7567568,15.2324324 L29.3513514,17.8702703 M26.7567568,15.2324324 L26.7567568,28.4216216 C26.7567568,28.7713989 26.6200216,29.1069319 26.3767784,29.3542292 C26.1335351,29.6015265 25.8035027,29.7405405 25.4594595,29.7405405 L21.5675676,29.7405405 M13.7837838,29.7405405 C14.127853,29.7405405 14.4578205,29.6015265 14.7011157,29.3542292 C14.9443978,29.1069319 15.0810811,28.7713989 15.0810811,28.4216216 L15.0810811,23.1459459 C15.0810811,22.7961686 15.2177643,22.4606357 15.4610465,22.2133384 C15.7043416,21.9660411 16.0343092,21.827027 16.3783784,21.827027 L18.972973,21.827027 C19.3170162,21.827027 19.6470486,21.9660411 19.8902919,22.2133384 C20.1335351,22.4606357 20.2702703,22.7961686 20.2702703,23.1459459 L20.2702703,28.4216216 C20.2702703,28.7713989 20.4070054,29.1069319 20.6502486,29.3542292 C20.8934919,29.6015265 21.2235243,29.7405405 21.5675676,29.7405405 M13.7837838,29.7405405 L21.5675676,29.7405405" id="Shape" stroke="#9B9B9B" stroke-width="2.1"></path>
    </g>
</svg>