<?xml version="1.0" encoding="UTF-8"?>
<svg width="36px" height="36px" viewBox="0 0 36 36" version="1.1" xmlns="http://www.w3.org/2000/svg" xmlns:xlink="http://www.w3.org/1999/xlink">
    <title>Icons/Tabbar/ic_profiletest</title>
    <g id="Icons/Tabbar/ic_profile" stroke="none" stroke-width="1" fill="none" fill-rule="evenodd" stroke-linecap="round" stroke-linejoin="round">
        <g id="Vector" transform="translate(9.000000, 6.000000)" stroke="#9B9B9B" stroke-width="2.1">
            <path d="M12.6365143,8.72521611 C13.6010571,7.76669111 14.1428571,6.46666722 14.1428571,5.11111111 C14.1428571,3.755555 13.6010571,2.45553111 12.6365143,1.49700611 C11.6721,0.538493889 10.3639757,0 9,0 C7.63602429,0 6.32792571,0.538493889 5.36344714,1.49700611 C4.39898143,2.45553111 3.85714286,3.755555 3.85714286,5.11111111 C3.85714286,6.46666722 4.39898143,7.76669111 5.36344714,8.72521611 C6.32792571,9.68372833 7.63602429,10.2222222 9,10.2222222 C10.3639757,10.2222222 11.6721,9.68372833 12.6365143,8.72521611 Z" id="Path"></path>
            <path d="M2.63603571,16.6753833 C4.32387,14.9979167 6.61304571,14.0555556 9,14.0555556 C11.3869543,14.0555556 13.6761429,14.9979167 15.3639,16.6753833 C17.0517857,18.3527222 18,20.6278056 18,23 L0,23 C0,20.6278056 0.948214286,18.3527222 2.63603571,16.6753833 Z" id="Path"></path>
        </g>
    </g>
</svg>